HIERARCHY
ROOT Hips
{
	OFFSET 0.0000 0.0000 0.0000
	CHANNELS 6 Xposition Yposition Zposition Yrotation Xrotation Zrotation
	JOINT Spine
	{
		OFFSET 0.0000 10.0000 0.0000
		CHANNELS 3 Yrotation Xrotation Zrotation
		JOINT Chest
		{
			OFFSET 0.0000 15.0000 0.0000
			CHANNELS 3 Yrotation Xrotation Zrotation
			JOINT Neck
			{
				OFFSET 0.0000 22.0000 0.0000
				CHANNELS 3 Yrotation Xrotation Zrotation
				JOINT Head
				{
					OFFSET 0.0000 10.0000 0.0000
					CHANNELS 3 Yrotation Xrotation Zrotation
					End Site
					{
						OFFSET 0.0000 18.0000 0.0000
					}
				}
			}
			JOINT LeftShoulder
			{
				OFFSET 3.0000 18.0000 0.0000
				CHANNELS 3 Yrotation Xrotation Zrotation
				JOINT LeftArm
				{
					OFFSET 13.0000 0.0000 0.0000
					CHANNELS 3 Yrotation Xrotation Zrotation
					JOINT LeftForeArm
					{
						OFFSET 29.0000 0.0000 0.0000
						CHANNELS 3 Yrotation Xrotation Zrotation
						JOINT LeftHand
						{
							OFFSET 26.0000 0.0000 0.0000
							CHANNELS 3 Yrotation Xrotation Zrotation
							End Site
							{
								OFFSET 17.0000 0.0000 0.0000
							}
						}
					}
				}
			}
			JOINT RightShoulder
			{
				OFFSET -3.0000 18.0000 0.0000
				CHANNELS 3 Yrotation Xrotation Zrotation
				JOINT RightArm
				{
					OFFSET -13.0000 0.0000 0.0000
					CHANNELS 3 Yrotation Xrotation Zrotation
					JOINT RightForeArm
					{
						OFFSET -29.0000 0.0000 0.0000
						CHANNELS 3 Yrotation Xrotation Zrotation
						JOINT RightHand
						{
							OFFSET -26.0000 0.0000 0.0000
							CHANNELS 3 Yrotation Xrotation Zrotation
							End Site
							{
								OFFSET -17.0000 0.0000 0.0000
							}
						}
					}
				}
			}
		}
	}
	JOINT LeftUpLeg
	{
		OFFSET 9.0000 -3.0000 0.0000
		CHANNELS 3 Yrotation Xrotation Zrotation
		JOINT LeftLeg
		{
			OFFSET 0.0000 -42.0000 0.0000
			CHANNELS 3 Yrotation Xrotation Zrotation
			JOINT LeftFoot
			{
				OFFSET 0.0000 -42.0000 0.0000
				CHANNELS 3 Yrotation Xrotation Zrotation
				JOINT LeftToeBase
				{
					OFFSET 0.0000 -7.0000 13.0000
					CHANNELS 3 Yrotation Xrotation Zrotation
					End Site
					{
						OFFSET 0.0000 0.0000 7.0000
					}
				}
			}
		}
	}
	JOINT RightUpLeg
	{
		OFFSET -9.0000 -3.0000 0.0000
		CHANNELS 3 Yrotation Xrotation Zrotation
		JOINT RightLeg
		{
			OFFSET 0.0000 -42.0000 0.0000
			CHANNELS 3 Yrotation Xrotation Zrotation
			JOINT RightFoot
			{
				OFFSET 0.0000 -42.0000 0.0000
				CHANNELS 3 Yrotation Xrotation Zrotation
				JOINT RightToeBase
				{
					OFFSET 0.0000 -7.0000 13.0000
					CHANNELS 3 Yrotation Xrotation Zrotation
					End Site
					{
						OFFSET 0.0000 0.0000 7.0000
					}
				}
			}
		}
	}
}
MOTION
Frames: 20
Frame Time: 0.0333333
-1.9973 89.0000 -0.1047 -3.0000 5.0000 0.0000 1.8000 4.0000 0.0000 3.6000 4.0000 0.0000 0.0000 -5.0000 0.0000 0.0000 -3.0000 0.0000 0.0000 0.0000 0.0000 0.0000 28.0000 -66.0000 -78.0000 0.0000 0.0000 0.0000 0.0000 0.0000 0.0000 0.0000 0.0000 0.0000 -32.0000 66.0000 78.0000 0.0000 0.0000 0.0000 0.0000 0.0000 -2.3041 -48.3362 3.0829 0.0000 75.8092 0.0000 4.1078 -36.2555 -4.2495 0.0000 -0.0000 0.0000 0.0010 0.1803 0.3248 0.0000 32.1933 0.0000 2.9151 -18.5628 -2.2096 0.0000 -16.8741 0.0000
-1.9973 88.9143 5.3814 -3.0007 5.0020 0.0000 1.8000 4.0009 0.0000 3.6000 4.0009 0.0000 0.0000 -4.9987 0.0000 0.0000 -3.0054 0.0000 0.0000 0.0000 0.0000 0.0000 28.0000 -65.9963 -77.9927 0.0000 0.0000 0.0000 0.0000 0.0000 0.0000 0.0000 0.0000 0.0000 -32.0000 65.9963 77.9927 0.0000 0.0000 0.0000 0.0000 0.0000 -1.8553 -44.8044 2.6319 0.0000 74.3656 0.0000 4.1619 -38.0673 -4.2235 0.0000 -0.0000 0.0000 0.0114 3.7157 0.1761 0.0000 30.9651 0.0000 2.6851 -12.9724 -2.1139 0.0000 -23.9918 0.0000
-1.9973 88.6845 10.4508 -3.0026 5.0080 0.0000 1.8000 4.0036 0.0000 3.6000 4.0036 0.0000 0.0000 -4.9949 0.0000 0.0000 -3.0213 0.0000 0.0000 0.0000 0.0000 0.0000 28.0000 -65.9856 -77.9711 0.0000 0.0000 0.0000 0.0000 0.0000 0.0000 0.0000 0.0000 0.0000 -32.0000 65.9856 77.9711 0.0000 0.0000 0.0000 0.0000 0.0000 -1.6884 -42.6210 2.4925 0.0000 69.2112 0.0000 3.9405 -34.3759 -3.8909 0.0000 -0.0000 0.0000 0.0040 8.2547 0.0276 0.0000 27.2926 0.0000 2.5395 -7.8765 -1.9927 0.0000 -29.3710 0.0000
-1.9972 88.3519 15.5201 -3.0057 5.0178 0.0000 1.8000 4.0080 0.0000 3.6000 4.0080 0.0000 0.0000 -4.9888 0.0000 0.0000 -3.0475 0.0000 0.0000 0.0000 0.0000 0.0000 28.0000 -65.9679 -77.9359 0.0000 0.0000 0.0000 0.0000 0.0000 0.0000 0.0000 0.0000 0.0000 -32.0000 65.9679 77.9359 0.0000 0.0000 0.0000 0.0000 0.0000 -1.5951 -40.5669 2.4519 0.0000 61.7350 0.0000 3.6591 -28.0135 -3.4668 0.0000 -0.0000 0.0000 -0.0476 17.1337 -0.1616 0.0000 15.4553 0.0000 2.5416 -2.5731 -1.7054 0.0000 -31.5000 0.0000
-1.7014 87.9575 21.0216 -3.0101 5.0313 0.0000 1.8000 4.0141 0.0000 3.6000 4.0141 0.0000 0.0000 -4.9803 0.0000 0.0000 -3.0836 0.0000 0.0000 0.0000 0.0000 0.0000 28.0000 -65.9437 -77.8873 0.0000 0.0000 0.0000 0.0000 0.0000 0.0000 0.0000 0.0000 0.0000 -32.0000 65.9437 77.8873 0.0000 0.0000 0.0000 0.0000 0.0000 -1.2702 -37.7060 2.0762 0.0000 53.5043 0.0000 3.4256 -21.7263 -2.8507 0.0000 -0.0000 0.0000 -0.0940 13.4119 -0.4054 0.0000 23.9687 0.0000 2.7797 -10.4728 -1.7457 0.0000 -28.7173 0.0000
-0.9616 87.5425 27.3799 -3.0156 5.0483 0.0000 1.8000 4.0217 0.0000 3.6000 4.0217 0.0000 0.0000 -4.9697 0.0000 0.0000 -3.1294 0.0000 0.0000 0.0000 0.0000 0.0000 28.0000 -65.9131 -77.8261 0.0000 0.0000 0.0000 0.0000 0.0000 0.0000 0.0000 0.0000 0.0000 -32.0000 65.9131 77.8261 0.0000 0.0000 0.0000 0.0000 0.0000 -0.6824 -34.0175 1.2197 0.0000 47.3728 0.0000 3.2810 -18.6120 -2.0406 0.0000 -0.0000 0.0000 0.0426 -3.5215 -0.6929 0.0000 50.0185 0.0000 3.3270 -26.7251 -2.1109 0.0000 -22.3049 0.0000
0.0000 87.1481 35.0000 -3.0221 5.0686 0.0000 1.8000 4.0309 0.0000 3.6000 4.0309 0.0000 0.0000 -4.9570 0.0000 0.0000 -3.1845 0.0000 0.0000 0.0000 0.0000 0.0000 28.0000 -65.8764 -77.7527 0.0000 0.0000 0.0000 0.0000 0.0000 0.0000 0.0000 0.0000 0.0000 -32.0000 65.8764 77.7527 0.0000 0.0000 0.0000 0.0000 0.0000 -0.0395 -29.6421 0.0799 0.0000 46.4925 0.0000 3.2636 -21.8831 -1.2868 0.0000 -0.0000 0.0000 0.4136 -21.7370 -1.1167 0.0000 71.3321 0.0000 3.9281 -37.7738 -2.2685 0.0000 -15.1667 0.0000
0.9617 86.8155 43.5660 -2.9117 5.0921 0.0000 1.7292 4.0415 0.0000 3.4583 4.0415 0.0000 0.0000 -4.9424 0.0000 0.0000 -3.2486 0.0000 0.0000 0.0000 0.0000 0.0000 26.8194 -65.8338 -77.6677 0.0000 0.0000 0.0000 0.0000 0.0000 0.0000 0.0000 0.0000 0.0000 -30.8194 65.8338 77.6677 0.0000 0.0000 0.0000 0.0000 0.0000 0.4205 -23.4385 -1.0572 0.0000 46.6674 0.0000 3.2099 -28.3283 -0.5571 0.0000 -0.0000 0.0000 1.1375 -39.6353 -1.7829 0.0000 86.6310 0.0000 3.9646 -40.7217 -1.7952 0.0000 -10.2062 0.0000
1.7020 86.5857 52.4498 -2.5939 5.1187 0.0000 1.5333 4.0536 0.0000 3.0667 4.0536 0.0000 0.0000 -4.9259 0.0000 0.0000 -3.3214 0.0000 0.0000 0.0000 0.0000 0.0000 23.5556 -65.7857 -77.5715 0.0000 0.0000 0.0000 0.0000 0.0000 0.0000 0.0000 0.0000 0.0000 -27.5556 65.7857 77.5715 0.0000 0.0000 0.0000 0.0000 0.0000 0.4800 -15.1182 -1.8398 0.0000 42.8823 0.0000 2.9001 -32.9195 0.1936 0.0000 -0.0000 0.0000 2.3973 -54.6001 -2.9402 0.0000 96.0366 0.0000 3.3615 -36.6746 -0.7552 0.0000 -8.8790 0.0000
1.9986 86.5000 61.5971 -2.1103 5.1481 0.0000 1.2375 4.0669 0.0000 2.4750 4.0669 0.0000 0.0000 -4.9077 0.0000 0.0000 -3.4026 0.0000 0.0000 0.0000 0.0000 0.0000 18.6250 -65.7323 -77.4646 0.0000 0.0000 0.0000 0.0000 0.0000 0.0000 0.0000 0.0000 0.0000 -22.6250 65.7323 77.4646 0.0000 0.0000 0.0000 0.0000 0.0000 0.1545 -4.1563 -2.1305 0.0000 33.6101 0.0000 2.3321 -34.6514 0.7910 0.0000 -0.0000 0.0000 3.4340 -60.2173 -3.9550 0.0000 99.4904 0.0000 2.7139 -38.6957 0.0573 0.0000 -5.1333 0.0000
1.9206 87.0679 70.9763 -1.5027 5.1804 0.0000 0.8667 4.0815 0.0000 1.7333 4.0815 0.0000 0.0000 -4.8879 0.0000 0.0000 -3.4919 0.0000 0.0000 0.0000 0.0000 0.0000 12.4444 -65.6739 -77.3477 0.0000 0.0000 0.0000 0.0000 0.0000 0.0000 0.0000 0.0000 0.0000 -16.4444 65.6739 77.3477 0.0000 0.0000 0.0000 0.0000 0.0000 -0.4919 13.6803 -2.0789 0.0000 9.6876 0.0000 1.5087 -28.3677 1.2899 0.0000 -0.2075 0.0000 2.6666 -52.4604 -3.3615 0.0000 97.7280 0.0000 2.0642 -50.7175 0.4481 0.0000 -0.0000 0.0000
1.7035 88.3765 80.5609 -0.8126 5.2152 0.0000 0.4458 4.0974 0.0000 0.8917 4.0974 0.0000 0.0000 -4.8665 0.0000 0.0000 -3.5889 0.0000 0.0000 0.0000 0.0000 0.0000 5.4306 -65.6106 -77.2212 0.0000 0.0000 0.0000 0.0000 0.0000 0.0000 0.0000 0.0000 0.0000 -9.4306 65.6106 77.2212 0.0000 0.0000 0.0000 0.0000 0.0000 -0.5575 18.3962 -1.7659 0.0000 9.6876 0.0000 1.2000 -14.5807 1.0661 0.0000 -16.8741 0.0000 1.6504 -43.4748 -2.3979 0.0000 89.8148 0.0000 0.8862 -57.2121 1.0438 0.0000 -0.0000 0.0000
1.3750 89.8333 90.3145 -0.0816 5.2524 0.0000 -0.0000 4.1143 0.0000 -0.0000 4.1143 0.0000 0.0000 -4.8438 0.0000 0.0000 -3.6935 0.0000 0.0000 0.0000 0.0000 0.0000 -2.0000 -65.5428 -77.0856 0.0000 0.0000 0.0000 0.0000 0.0000 0.0000 0.0000 0.0000 0.0000 -2.0000 65.5428 77.0856 0.0000 0.0000 0.0000 0.0000 0.0000 -0.4357 22.2633 -1.1500 0.0000 9.6876 0.0000 0.5953 -2.2125 0.8542 0.0000 -31.5000 0.0000 1.0125 -39.2729 -1.5992 0.0000 80.4615 0.0000 -0.3489 -54.4283 1.5001 0.0000 -0.0000 0.0000
0.9629 90.8457 100.1989 0.6486 5.2919 0.0000 -0.4458 4.1323 0.0000 -0.8917 4.1323 0.0000 0.0000 -4.8197 0.0000 0.0000 -3.8052 0.0000 0.0000 0.0000 0.0000 0.0000 -9.4306 -65.4707 -76.9414 0.0000 0.0000 0.0000 0.0000 0.0000 0.0000 0.0000 0.0000 0.0000 5.4306 65.4707 76.9414 0.0000 0.0000 0.0000 0.0000 0.0000 -0.1263 24.7176 -0.3021 0.0000 9.6876 0.0000 -0.4216 -6.9030 0.6454 0.0000 -29.5115 0.0000 0.6050 -38.0171 -0.9822 0.0000 71.3383 0.0000 -1.1707 -46.0013 1.5135 0.0000 -0.0000 0.0000
0.4952 90.9427 110.1736 1.3364 5.3336 0.0000 -0.8667 4.1513 0.0000 -1.7333 4.1513 0.0000 0.0000 -4.7944 0.0000 0.0000 -3.9238 0.0000 0.0000 0.0000 0.0000 0.0000 -16.4444 -65.3946 -76.7892 0.0000 0.0000 0.0000 0.0000 0.0000 0.0000 0.0000 0.0000 0.0000 12.4444 65.3946 76.7892 0.0000 0.0000 0.0000 0.0000 0.0000 0.2081 23.5052 0.5217 0.0000 9.6876 0.0000 -1.3923 -11.1205 0.4404 0.0000 -24.6664 0.0000 0.3267 -37.7231 -0.5340 0.0000 62.3948 0.0000 -1.7431 -35.9091 1.2989 0.0000 -0.0000 0.0000
-0.0000 90.5320 120.1953 1.9403 5.3772 0.0000 -1.2375 4.1713 0.0000 -2.4750 4.1713 0.0000 0.0000 -4.7681 0.0000 0.0000 -4.0489 0.0000 0.0000 0.0000 0.0000 0.0000 -22.6250 -65.3148 -76.6295 0.0000 0.0000 0.0000 0.0000 0.0000 0.0000 0.0000 0.0000 0.0000 18.6250 65.3148 76.6295 0.0000 0.0000 0.0000 0.0000 0.0000 0.1110 6.0061 1.0606 0.0000 36.0325 0.0000 -2.3438 -26.7047 0.7225 0.0000 -18.6451 0.0000 0.1211 -36.7684 -0.2023 0.0000 53.1584 0.0000 -2.1783 -25.7476 0.9712 0.0000 -0.0000 0.0000
-0.4949 89.8333 130.2177 2.4185 5.4227 0.0000 -1.5333 4.1921 0.0000 -3.0667 4.1921 0.0000 0.0000 -4.7407 0.0000 0.0000 -4.1803 0.0000 0.0000 0.0000 0.0000 0.0000 -27.5556 -65.2314 -76.4628 0.0000 0.0000 0.0000 0.0000 0.0000 0.0000 0.0000 0.0000 0.0000 23.5556 65.2314 76.4628 0.0000 0.0000 0.0000 0.0000 0.0000 -0.3761 -15.1777 1.4363 0.0000 63.8558 0.0000 -3.3200 -39.5087 1.3532 0.0000 -13.1278 0.0000 -0.0590 -34.6828 0.1037 0.0000 44.9815 0.0000 -2.5266 -17.7846 0.6000 0.0000 -0.0000 0.0000
-0.9619 88.9747 140.1920 2.7295 5.4698 0.0000 -1.7292 4.2138 0.0000 -3.4583 4.2138 0.0000 0.0000 -4.7125 0.0000 0.0000 -4.3176 0.0000 0.0000 0.0000 0.0000 0.0000 -30.8194 -65.1448 -76.2897 0.0000 0.0000 0.0000 0.0000 0.0000 0.0000 0.0000 0.0000 0.0000 26.8194 65.1448 76.2897 0.0000 0.0000 0.0000 0.0000 0.0000 -1.0043 -33.7509 1.8073 0.0000 81.9345 0.0000 -3.8438 -42.7525 1.6294 0.0000 -9.7950 0.0000 -0.2662 -32.0170 0.5020 0.0000 41.0468 0.0000 -2.7803 -15.0949 0.2726 0.0000 -0.0000 0.0000
-1.3733 88.0840 150.0679 2.8316 5.5185 0.0000 -1.8000 4.2362 0.0000 -3.6000 4.2362 0.0000 0.0000 -4.6836 0.0000 0.0000 -4.4605 0.0000 0.0000 0.0000 0.0000 0.0000 -32.0000 -65.0553 -76.1105 0.0000 0.0000 0.0000 0.0000 0.0000 0.0000 0.0000 0.0000 0.0000 28.0000 65.0553 76.1105 0.0000 0.0000 0.0000 0.0000 0.0000 -1.7739 -48.9030 2.3533 0.0000 93.1310 0.0000 -3.7872 -39.8603 1.3707 0.0000 -8.8790 0.0000 -0.5144 -28.4102 1.0810 0.0000 43.0924 0.0000 -2.9199 -20.2183 0.0624 0.0000 -0.0000 0.0000
-1.7018 87.2893 159.8892 2.6972 5.5686 0.0000 -1.7292 4.2593 0.0000 -3.4583 4.2593 0.0000 0.0000 -4.6540 0.0000 0.0000 -4.6087 0.0000 0.0000 0.0000 0.0000 0.0000 -30.8194 -64.9630 -75.9259 0.0000 0.0000 0.0000 0.0000 0.0000 0.0000 0.0000 0.0000 0.0000 26.8194 64.9630 75.9259 0.0000 0.0000 0.0000 0.0000 0.0000 -2.5989 -56.2194 3.1258 0.0000 98.1765 0.0000 -3.5863 -40.9151 0.9212 0.0000 -5.9310 0.0000 -0.6189 -21.9658 1.6542 0.0000 44.5291 0.0000 -2.8898 -28.1632 -0.1636 0.0000 -0.0000 0.0000
